<svg id="Layer_1" data-name="Layer 1" xmlns="http://www.w3.org/2000/svg" xmlns:xlink="http://www.w3.org/1999/xlink" viewBox="0 0 38.64 57.86"><defs><style>.cls-1{fill:url(#linear-gradient);}.cls-2{fill:url(#linear-gradient-2);}.cls-3{fill:url(#linear-gradient-3);}</style><linearGradient id="linear-gradient" x1="278.65" y1="71.48" x2="278.65" y2="-141.12" gradientTransform="matrix(1, 0, 0, -1, -261.51, 171.36)" gradientUnits="userSpaceOnUse"><stop offset="0.15" stop-color="#b66d12"/><stop offset="0.42" stop-color="#c8882f"/><stop offset="0.71" stop-color="#dfaa53"/><stop offset="0.81" stop-color="#e8bc6b"/><stop offset="1" stop-color="#ffe9a6"/></linearGradient><linearGradient id="linear-gradient-2" x1="278.65" y1="13.84" x2="278.65" y2="-3.79" xlink:href="#linear-gradient"/><linearGradient id="linear-gradient-3" x1="280.84" y1="71.48" x2="280.84" y2="-141.12" xlink:href="#linear-gradient"/></defs><title>hilal</title><path class="cls-1" d="M17.14,165.72a.66.66,0,0,1-.46-.19.6.6,0,0,1-.14-.21.7.7,0,0,1-.05-.25.66.66,0,0,1,.19-.46.68.68,0,0,1,.92,0,.66.66,0,0,1,0,.92h0a.6.6,0,0,1-.21.14A.7.7,0,0,1,17.14,165.72Z" transform="translate(-0.01 -149.43)"/><path class="cls-2" d="M16.49,162.08a.65.65,0,0,1,.65-.65h0a.65.65,0,0,1,.65.65h0a.65.65,0,0,1-.65.65h0A.65.65,0,0,1,16.49,162.08Zm0-3a.65.65,0,0,1,.65-.65h0a.65.65,0,0,1,.65.65h0a.65.65,0,0,1-.65.65h0a.65.65,0,0,1-.65-.64Zm0-3a.65.65,0,0,1,.65-.65h0a.65.65,0,0,1,.65.65h0a.65.65,0,0,1-.65.65h0a.65.65,0,0,1-.65-.63Zm0-3a.65.65,0,0,1,.65-.65h0a.65.65,0,0,1,.65.65h0a.65.65,0,0,1-.65.65h0a.65.65,0,0,1-.65-.62Zm0-3a.65.65,0,0,1,.65-.65h0a.65.65,0,0,1,.65.65h0a.65.65,0,0,1-.65.65h0a.65.65,0,0,1-.65-.61Z" transform="translate(-0.01 -149.43)"/><path class="cls-3" d="M18.2,199a17.21,17.21,0,0,1,6.73-32.12,20.47,20.47,0,1,0,13.72,29.42A17.2,17.2,0,0,1,18.2,199Z" transform="translate(-0.01 -149.43)"/></svg>