<svg id="Layer_1" data-name="Layer 1" xmlns="http://www.w3.org/2000/svg" xmlns:xlink="http://www.w3.org/1999/xlink" viewBox="0 0 28.48 72.68"><defs><style>.cls-1{fill:url(#linear-gradient);}.cls-2{fill:url(#linear-gradient-2);}.cls-3{fill:url(#linear-gradient-3);}.cls-4{fill:url(#linear-gradient-4);}.cls-5{fill:url(#linear-gradient-5);}.cls-6{fill:url(#linear-gradient-6);}</style><linearGradient id="linear-gradient" x1="280.14" y1="-26.46" x2="280.14" y2="-211.57" gradientTransform="matrix(1, 0, 0, -1, -265.91, -86.43)" gradientUnits="userSpaceOnUse"><stop offset="0.15" stop-color="#b66d12"/><stop offset="0.42" stop-color="#c8882f"/><stop offset="0.71" stop-color="#dfaa53"/><stop offset="0.81" stop-color="#e8bc6b"/><stop offset="1" stop-color="#ffe9a6"/></linearGradient><linearGradient id="linear-gradient-2" x1="280.15" y1="-26.46" x2="280.15" y2="-211.57" xlink:href="#linear-gradient"/><linearGradient id="linear-gradient-3" x1="280.1" y1="-26.46" x2="280.1" y2="-211.57" xlink:href="#linear-gradient"/><linearGradient id="linear-gradient-4" x1="280.11" y1="-26.46" x2="280.11" y2="-211.57" xlink:href="#linear-gradient"/><linearGradient id="linear-gradient-5" x1="280.14" y1="-26.46" x2="280.14" y2="-211.57" xlink:href="#linear-gradient"/><linearGradient id="linear-gradient-6" x1="14.18" y1="-39.44" x2="14.18" y2="-63.05" gradientTransform="matrix(1, 0, 0, -1, 0.04, -33.24)" xlink:href="#linear-gradient"/></defs><title>lantern</title><path class="cls-1" d="M14.22,25c-1.38,0-2.12-2.33-2.12-4.53S12.84,16,14.22,16s2.13,2.34,2.13,4.53S15.6,25,14.22,25Zm0-8.25c-.54,0-1.32,1.45-1.32,3.72s.78,3.73,1.32,3.73,1.32-1.45,1.32-3.73S14.76,16.76,14.22,16.76Z" transform="translate(0.04)"/><path class="cls-2" d="M14.24,26.37a39.41,39.41,0,0,1,4.06,1.48c2.94,1.29,5,2.72,5.77,4a5.77,5.77,0,0,1,.56,1.33H3.85a5,5,0,0,1,.47-1.12c.74-1.31,2.78-2.78,5.74-4.12a39.11,39.11,0,0,1,4.18-1.6m0-2S5,27,2.72,31.1A7.2,7.2,0,0,0,1.79,35h24.9a7.27,7.27,0,0,0-1-4.15C23.28,26.77,14.24,24.34,14.24,24.34Z" transform="translate(0.04)"/><path class="cls-3" d="M18.64,68.19a2.23,2.23,0,0,1-.28,1.21c-.56,1-2.72,2-4.1,2.39-1.39-.41-3.57-1.32-4.15-2.3a2.2,2.2,0,0,1-.3-1.3h8.83m.7-.86H9.09a3.09,3.09,0,0,0,.25,2.6c1,1.72,4.9,2.75,4.9,2.75s3.85-1.11,4.84-2.86a3.06,3.06,0,0,0,.23-2.49Z" transform="translate(0.04)"/><path class="cls-4" d="M26.67,34.13a2.16,2.16,0,0,0-.36,0H2.09a2.16,2.16,0,0,0-.36,0A2.13,2.13,0,0,0,0,36.23L6.63,66.05c.31,1,.5,2.14,1.13,2.14H20.6c.63,0,.84-.7,1.13-2.14l6.71-29.86A2.13,2.13,0,0,0,26.67,34.13Zm-15.78,32H7.72c-.16,0-.35-1-.54-1.82,0,0-5-22.7-5.62-25.2C1.1,37.2,1.56,37,2.12,37H7.78c.31,0,1.2.11,1.28,1.92.11,2.32,1.85,25.4,1.85,25.4.1,1.19.18,1.79,0,1.79Zm5.59,0H12.09c-.18,0-.27-1-.35-1.83,0,0-1.61-22.75-1.9-25.26-.22-1.91.37-2.11,1-2.11h6.6c.35,0,1.37.1,1.16,1.92-.27,2.32-1.8,25.42-1.8,25.42-.08,1.22-.14,1.82-.32,1.82Zm10.38-27c-.6,2.5-5.62,25.2-5.62,25.2-.2.81-.39,1.83-.55,1.82H17.53c-.16,0-.12-.6,0-1.83,0,0,1.74-23.08,1.85-25.4.08-1.81,1-1.91,1.28-1.91h5.65c.54,0,1,.18.55,2.09Z" transform="translate(0.04)"/><path class="cls-5" d="M16.66,52.4a.3.3,0,0,0,.18-.08c-.12-.07-.17-.12-.21-.11s-.06.07-.09.1S16.61,52.4,16.66,52.4Zm-.62.2a.16.16,0,0,0,.09-.07.24.24,0,0,0-.06-.11.31.31,0,0,0-.09.11.14.14,0,0,0,.11.07Zm-1.35.78a.14.14,0,0,0,.11.09l.13-.11c.06-.06-.11-.09-.15-.08A.15.15,0,0,0,14.69,53.38Zm-1.81-4.75c-.06,0-.08-.07-.12-.08h-.07a.11.11,0,0,0,.06.1ZM15.17,53c.05,0,.09.07.11.06a.16.16,0,0,0,.07-.09s0-.07-.07-.06l-.11.09Zm-1.63-4.74a.31.31,0,0,0,.11-.09l-.13-.06a.64.64,0,0,0-.06.1S13.52,48.26,13.54,48.25Zm.49-.37.13-.11c.06-.05-.11-.09-.14-.09s-.07.07-.1.11S14,47.88,14,47.88Zm1.32.32a.34.34,0,0,0,0-.14s-.1.08-.09.11a.1.1,0,0,0,.07.08l.07-.06Zm-.46-.43-.11-.13c0-.06-.09.11-.09.14s.07.07.11.1.08-.07.09-.11Zm1.28.84c-.07,0-.1-.06-.13-.06s-.07.06-.06.07.05.08.08.08,0-.05.11-.09Zm.66.22c-.08,0-.13-.09-.17-.08s-.08.07-.12.1.06.09.1.1.08-.05.19-.12Zm-2.91,4.55s.07.09.11.09.07,0,.13-.1-.11-.1-.14-.09-.07.06-.1.1Zm6.24,5.39c-.1.09-.19.18-.15.33a.74.74,0,0,1,0,.21.34.34,0,0,0,.29.37.29.29,0,0,0,.32-.26v-.35a.31.31,0,0,0-.17-.32.28.28,0,0,0-.29,0Zm-2.07-2.09h0a1.52,1.52,0,0,0,.19-.69,1.7,1.7,0,0,0-.1-.59C18.14,55.84,18.09,56.26,18.09,56.68Zm2.24,3.4h-.08c.43.41,1.17,0,1.25-.6a2.09,2.09,0,0,0,0-.5.81.81,0,0,0-.87-.75.9.9,0,0,0-.27.07.8.8,0,0,1,1,.57.5.5,0,0,1,0,.12,1.85,1.85,0,0,1,0,.47.75.75,0,0,1-.82.68.9.9,0,0,1-.22-.06ZM10.47,59h0ZM10,61.21a1.25,1.25,0,0,0,.72-.29v-.13h0a2.5,2.5,0,0,1-.35.21.76.76,0,0,1-1-.26.77.77,0,0,1-.1-.42v-.09a.76.76,0,0,0,.53.93.83.83,0,0,0,.22,0Zm12.37-1.76.15-.65a1.85,1.85,0,0,0-.3.39,1.3,1.3,0,0,0,.14.26Zm-1.4,2.37c-.05.28-.07.55-.13.8a3.51,3.51,0,0,1-2.6,2.68,2.11,2.11,0,0,1-.75.08v.25h.19a6.34,6.34,0,0,0,.75-.07,3.07,3.07,0,0,0-.41.54h.29a2.9,2.9,0,0,1,.92-.82,3.54,3.54,0,0,1,2-.53v-.22a8.52,8.52,0,0,0-1.22.06,4.2,4.2,0,0,0,1.13-2.4,3.69,3.69,0,0,0,.56.19l.05-.23a4.76,4.76,0,0,1-.53-.19ZM12.09,52.3a.13.13,0,0,0,.1.1l.14-.1c.06,0-.1-.1-.14-.09A.12.12,0,0,0,12.09,52.3Zm.62.21a.13.13,0,0,0,.07.09h.11l-.11-.1h-.07Zm4.34-.76s.09-.08.09-.11,0-.08-.1-.13-.1.1-.09.14.05.06.08.1ZM13.48,53a.16.16,0,0,0,.09.07s0,0,.09-.07l-.12-.07s-.09.06-.08.07ZM17,51.09l.09-.08c.09-.08-.07-.07-.09-.06a.31.31,0,0,0-.09.07s0,.06.07.07Zm0-.85s.08-.07.07-.09L17,50.06l-.07.09a.37.37,0,0,0,0,.09Zm.1-.83L17,49.5s.06.1.1.1.08,0,.14-.08-.1-.11-.16-.11Zm-4.6,5.78c-.07-.67-.46-.93-1.1-.63a1.55,1.55,0,0,0-.32.2V55l.23-.2A.71.71,0,0,1,12,54.6c.27.14.29.45.27.74a1.31,1.31,0,0,1-1.15,1.2v.21a2,2,0,0,0,.35-.11A1.42,1.42,0,0,0,12.46,55.19ZM20,42.05a.31.31,0,0,0,.27.35h0a.31.31,0,0,0,.32-.3h0v-.35a.29.29,0,0,0-.27-.31h0a.32.32,0,0,0-.31.35.57.57,0,0,1,0,.29ZM12.18,49s.1-.11.09-.13a1.56,1.56,0,0,0-.12-.11s-.08.08-.08.12a.18.18,0,0,0,.11.15Zm10.69,4.2-.28.12a3.57,3.57,0,0,1-3.44-.19,3.27,3.27,0,0,1-.76-.63l-.05.66a4.24,4.24,0,0,1,.59.23,3.34,3.34,0,0,1,1.25,1.08,4,4,0,0,1,.7,1.93v.16h0l.29-.13A4,4,0,0,1,23,56.06l0-.23h-.64a3.87,3.87,0,0,0-.68.12c-.21,0-.42.12-.64.19a1.8,1.8,0,0,1-.08-.21A4,4,0,0,0,20,53.81l-.06-.12a4.28,4.28,0,0,0,2.71-.21,4.56,4.56,0,0,0,.58,1.72l.08-.37a4,4,0,0,1-.43-1.48s0-.07,0-.16Zm-3.39-1.94a1.16,1.16,0,1,0,1.9-1.33,1.16,1.16,0,0,0-1.61-.28,1,1,0,0,0-.29.28c-.69.46-.6,1,0,1.36Zm-.32-.87a1,1,0,0,1,.53-.42,1,1,0,0,1,1.41-.11,1,1,0,0,1-1.29,1.52.73.73,0,0,1-.17-.18,1,1,0,0,1-.48-.39.39.39,0,0,1,0-.39Zm-14.89.81a2.83,2.83,0,0,0,.1.47.26.26,0,0,0,.06-.21.36.36,0,0,0-.16-.22Zm6-7.39v.11A1.07,1.07,0,0,0,11,43v-.17a.59.59,0,0,0-.15-.4,3.69,3.69,0,0,1,.08.46,1,1,0,0,1-.73.88Zm13.53,6.69a.34.34,0,0,0-.3-.38h0a.32.32,0,0,0-.32.32v.28a.31.31,0,0,0,.27.35h0a.35.35,0,0,0,.33-.36,1.09,1.09,0,0,1,0-.18ZM2.09,40.78,2,40.87s.07.1.1.1a.16.16,0,0,0,.14-.08C2.28,40.81,2.09,40.78,2.09,40.78Zm3.85,7v.14h0A10.8,10.8,0,0,1,7,47.57,3.44,3.44,0,0,1,9.69,48v-.39a6.41,6.41,0,0,1-.52-.39A3.72,3.72,0,0,1,8,44.81v-.26l-.34.15A3.56,3.56,0,0,1,4,44.27,2.61,2.61,0,0,1,2.86,42a3.51,3.51,0,0,1,.06-.79,2.8,2.8,0,0,1,1.69-2,3.68,3.68,0,0,1,3.08,0l.27.12A4.25,4.25,0,0,1,8,38.8a3.59,3.59,0,0,1,.59-1.51,1.54,1.54,0,0,0-.19-.17,3.92,3.92,0,0,0-.29.53c-.16.41-.28.83-.43,1.3a4.37,4.37,0,0,0-2.65-.21,4.13,4.13,0,0,0,1-1.79H5.81a3.52,3.52,0,0,1-2.64,2.48,2.36,2.36,0,0,1-1.18,0l-.35-.12a2.38,2.38,0,0,0,.07.29,2.87,2.87,0,0,0,1.74.06c-.16.23-.31.4-.43.6a3,3,0,0,0-.29.63,3.32,3.32,0,0,0-.13.7,4.33,4.33,0,0,0,0,.72,4.1,4.1,0,0,0,.12.7,3.55,3.55,0,0,0,.28.63,7,7,0,0,0,.45.62,3.38,3.38,0,0,0-.71-.1l.06.27a3.25,3.25,0,0,1,2.48,1.43,3.68,3.68,0,0,1,.65,1.92Zm1.75-2.85a.88.88,0,0,0,.08.26,3.89,3.89,0,0,0,1,2l.14.19a4.3,4.3,0,0,0-2.72.2A4.44,4.44,0,0,0,5,45.13a4.34,4.34,0,0,0,2.64-.2ZM5.3,51.44a.72.72,0,0,0,.84,0,1.14,1.14,0,0,0,.19-1.6l-.19-.19a.66.66,0,0,0-.69,0h.09a.73.73,0,0,1,.88.54h0a1.62,1.62,0,0,1,0,.44.78.78,0,0,1-.7.87.72.72,0,0,1-.43-.07Zm2.33,5,.29.12A1.34,1.34,0,0,1,8,56a3.5,3.5,0,0,1,2.1-2.74v-.44a3.59,3.59,0,0,1-.75.46,3.64,3.64,0,0,1-3.06,0L6,53.18a3.6,3.6,0,0,1-.13.82,4,4,0,0,1-.63,1.36,1.55,1.55,0,0,0,.07.31,4.13,4.13,0,0,0,.88-2.07c.47.09.91.21,1.35.27a4.37,4.37,0,0,0,1.35-.09,4.32,4.32,0,0,0-1.14,2.39A10.4,10.4,0,0,0,6.4,55.9a8.34,8.34,0,0,0-1,0l0,.25a3.77,3.77,0,0,1,2.17.31Zm1.75-6.53a1.17,1.17,0,1,0-.32,1.62,1.22,1.22,0,0,0,.32-.32c.56-.34.63-.87,0-1.28Zm.23.92a1.09,1.09,0,0,1-.8.43,1.38,1.38,0,0,1-1.35-.7,1.35,1.35,0,0,1,1.67-.63,1.14,1.14,0,0,1,.49.35.39.39,0,0,1,0,.54l0,0ZM5.7,50.72V50.4a.3.3,0,0,0-.28-.32h0a.33.33,0,0,0-.32.34,1.22,1.22,0,0,1,0,.27.32.32,0,0,0,.3.34h0a.3.3,0,0,0,.29-.29Zm14.6-7.89a.61.61,0,0,0,.66.06.91.91,0,0,0,.55-.88A1,1,0,0,0,21,41a.53.53,0,0,0-.57,0h.08a.79.79,0,0,1,.9.66.22.22,0,0,1,0,.08v.31a.79.79,0,0,1-.72.86.75.75,0,0,1-.39-.07Zm-4.77,21.7a2.69,2.69,0,0,1-.95-2.05,3.61,3.61,0,0,1,1.57-3.13l.24-.17L16.13,59a3.56,3.56,0,0,1-1.55-3,2.78,2.78,0,0,1,1.47-2.5A3.06,3.06,0,0,1,17.58,53v-.27a3.29,3.29,0,0,0-1.64.48A3.21,3.21,0,0,0,14.4,55.1a3.52,3.52,0,0,0-3.52-2.32v.27a2.57,2.57,0,0,1,1.67.34l.16.09a2.85,2.85,0,0,1,1.48,3A3.7,3.7,0,0,1,12.67,59l-.22.16h0l.23.18a3.57,3.57,0,0,1,1.55,3.11,2.73,2.73,0,0,1-1.44,2.4,4,4,0,0,1-1,.41,1,1,0,0,0,0,.25,3.43,3.43,0,0,0,2.52-2.27c.11.24.19.46.3.66a3.15,3.15,0,0,0,.41.55,3,3,0,0,0,.54.47,4.48,4.48,0,0,0,.6.35,4.13,4.13,0,0,0,.45.17v-.25h0a3.83,3.83,0,0,1-1.09-.63Zm-2.62-5.31c.22-.24.43-.44.62-.66a6.28,6.28,0,0,0,.52-.75c.14-.26.24-.54.38-.87A3.75,3.75,0,0,0,15,58.2c.27.34.58.66.86,1-.29.33-.6.65-.88,1a4.56,4.56,0,0,0-.59,1.19,4.29,4.29,0,0,0-1.52-2.15ZM11.8,49.58a.13.13,0,0,0,.1-.1l-.11-.13c0-.06-.09.11-.09.15s.06.11.09.1Zm.08.47a.11.11,0,0,0-.06.07s0,.07.06.07.07,0,.13-.07-.1,0-.14,0ZM8.52,58.69a.34.34,0,0,0-.34.32h0v.32a.29.29,0,0,0,.26.32H8.5a.36.36,0,0,0,.3-.37.89.89,0,0,1,0-.23.35.35,0,0,0-.29-.35Zm7.6-9.1a5.41,5.41,0,0,1-1.7-1,5.6,5.6,0,0,1-1.7,1,5.63,5.63,0,0,1,0,1.92c.31.15.61.27.89.43s.55.37.83.56a5.39,5.39,0,0,1,1.68-1,5.45,5.45,0,0,1,0-1.89Zm-.41,1.7L14.42,52l-1.3-.74V49.82l1.3-.74,1.29.74Zm1.06-2.09a6.6,6.6,0,0,1-2.33-1.33c-.39.27-.74.55-1.12.77s-.81.39-1.25.6a6.67,6.67,0,0,1,0,2.67,6.67,6.67,0,0,1,2.35,1.36,6.52,6.52,0,0,1,2.35-1.36,6.56,6.56,0,0,1,0-2.72ZM14.42,53a7.6,7.6,0,0,0-2.12-1.22,7.43,7.43,0,0,0,0-2.4c.39-.19.76-.36,1.1-.56s.67-.43,1-.67a7.38,7.38,0,0,0,2.09,1.2,7.56,7.56,0,0,0,0,2.42A8,8,0,0,0,14.41,53Zm-2.63-1.27.15-.09c.07,0-.1-.1-.13-.1s-.11,0-.11.08.05.13.08.13ZM8.48,58.25a.74.74,0,0,0-1,.32h0a1.19,1.19,0,0,0,0,1.21.75.75,0,0,0,1,.35l.15-.1H8.54a.78.78,0,0,1-1-.37.88.88,0,0,1-.07-.32v-.25a.8.8,0,0,1,.74-.85.7.7,0,0,1,.29,0ZM11,65.34a3.21,3.21,0,0,1-1.91-.91A3.68,3.68,0,0,1,8,62v-.24l-.28.13a4.17,4.17,0,0,1-.91.28l0,.23a4.67,4.67,0,0,0,.9-.27,1.55,1.55,0,0,1,.08.23,4,4,0,0,0,1,2.11.19.19,0,0,1,.05.1,4.11,4.11,0,0,0-1.6-.07.42.42,0,0,0,0,.24,3.55,3.55,0,0,1,1.45.09,3.14,3.14,0,0,1,1.82,1.22h.32a2.83,2.83,0,0,0-.39-.52,3,3,0,0,0,.51.07c0-.06,0-.16,0-.27Zm.33-14.8a3.1,3.1,0,0,0-.75-2.1v.45A2.52,2.52,0,0,1,11,50.24a4.18,4.18,0,0,1,0,1,3,3,0,0,1-.18.58v.48a3.33,3.33,0,0,0,.48-1.74ZM9.09,58.19v-.14a.68.68,0,0,1,.65-.71h0a1.14,1.14,0,0,1,.57.13v-.1l-.13-.06a.78.78,0,0,0-1.06.31A.8.8,0,0,0,9.09,58.19ZM11.85,51a.16.16,0,0,0-.07.09s0,.07.06.06.06,0,.11-.09,0-.12-.06-.11ZM10.13,40.14a2.11,2.11,0,0,1,.52.31.73.73,0,0,1,.14,1,.86.86,0,0,1-.2.18l-.08.06a.77.77,0,0,0,.45-1,.66.66,0,0,0-.21-.31,1.55,1.55,0,0,0-.69-.4H9.87v.09Zm9.39,3.53Zm0,0h0a1.12,1.12,0,0,1-.49.18V44a.7.7,0,0,0,.52-.34Zm-1-3.5v-.1a1.17,1.17,0,0,0-.7.71,1.25,1.25,0,1,1,.37.84.67.67,0,0,1-.28-.9l.06-.1a1.18,1.18,0,0,1,.53-.43Zm1.15.38c0,.13,0,.25,0,.38a.73.73,0,0,0-.41-.87v.07a.69.69,0,0,1,.34.39ZM10.18,43a.32.32,0,0,0,.19-.36.3.3,0,0,0-.24-.22Zm.58,1.49a1.5,1.5,0,0,0,.53,2.06l.24.11a.63.63,0,0,0,.85-.27.59.59,0,0,0,.07-.26.81.81,0,0,0,0-.22A1.53,1.53,0,0,0,11,44.38a.21.21,0,0,0-.22.08ZM12.34,46v.16a.48.48,0,0,1-.51.45.61.61,0,0,1-.18,0A1.32,1.32,0,0,1,10.81,45,3.65,3.65,0,0,1,11,44.6a1.34,1.34,0,0,1,1.37,1.29V46ZM11,39.59a1.52,1.52,0,0,0,1.52-1.52v-.26a.61.61,0,0,0-.65-.57.46.46,0,0,0-.23.06,1.49,1.49,0,0,0-.93,1.89,1.43,1.43,0,0,0,.13.28.19.19,0,0,0,.14.09Zm.48-2.11c.53-.26.86-.1.9.51a1.33,1.33,0,0,1-1,1.35L11,39.4a1.34,1.34,0,0,1,.31-1.87l.13-.08ZM16.38,46c.06.69.48,1,1.11.64a1.34,1.34,0,0,0,.59-.54c0-.46.06-.91.1-1.34a.14.14,0,0,0-.05-.13c-.07-.21-.11-.23-.33-.19a2.13,2.13,0,0,0-.61.17,1.44,1.44,0,0,0-.83,1.36Zm1.53-1.35a1.31,1.31,0,0,1-.17,1.63,1.39,1.39,0,0,1-.48.32c-.41.16-.67,0-.74-.46a1.33,1.33,0,0,1,1.1-1.51h.27Zm1.82-1.51a3,3,0,0,1-.15.56.63.63,0,0,0,.13-.59Zm-1.84-3.5a.23.23,0,0,0,.22-.14,1.64,1.64,0,0,0,.18-.69,1.48,1.48,0,0,0-1-1.46.64.64,0,0,0-.84.31,1.17,1.17,0,0,0-.05.2,1.5,1.5,0,0,0,1.21,1.73l.26,0Zm-1.12-2.17a.71.71,0,0,1,.75.12,1,1,0,1,1-1.09.9,1,1,0,0,1,.09-.33.7.7,0,0,1,.23-.72ZM18,42.54a.79.79,0,0,0,.08,1l.21.18v-.1a.88.88,0,0,1-.24-.27.72.72,0,0,1-.11-.68,1.17,1.17,0,0,1,0-.16Zm-7.58-1.23a.32.32,0,0,0-.21-.35L10,40.87a3.4,3.4,0,0,0,.05.69.31.31,0,0,0,.29-.28Zm9-.35a.28.28,0,0,0-.11-.13v.55a.34.34,0,0,0,.09-.45Zm0,1.89a.32.32,0,0,0-.21-.29h0v.65h.15a.28.28,0,0,0,.06-.39ZM2.53,38a1.32,1.32,0,0,0,.75-1H3.09a1.32,1.32,0,0,1-.6.82.66.66,0,0,1-.7.08.64.64,0,0,1-.26-.63v-.08a.65.65,0,0,0-.11.22c.1.6.51.78,1.11.51Zm5.64,3.87v.32a.29.29,0,0,0,.26.32h.06a.34.34,0,0,0,.3-.36.89.89,0,0,1,0-.23.36.36,0,0,0-.3-.37.32.32,0,0,0-.32.29Zm1-1.17v-.22a.77.77,0,0,0,0,.52,1.82,1.82,0,0,1,0-.33Zm15.1,2a.73.73,0,0,0,.45-.93.72.72,0,0,0-.45-.45,1.52,1.52,0,0,0-2.06.61s0,0,0,.08a1.51,1.51,0,0,0,2,.74l.11-.06ZM22.39,42a1.37,1.37,0,0,1,1.66-.65,1.06,1.06,0,0,1,.51.37.39.39,0,0,1,0,.55,1.16,1.16,0,0,1-1.06.44A1.35,1.35,0,0,1,22.39,42Zm4.15-4.06a1.27,1.27,0,0,1-.83-.92h-.18a1.42,1.42,0,0,0,.7.92A.87.87,0,0,0,27,38v-.13a.55.55,0,0,1-.5,0ZM22.37,50.75v-.38a.79.79,0,0,1,.65-.73h.07a.89.89,0,0,0-.83.78,3.69,3.69,0,0,0,0,.47.8.8,0,0,0,.84.76.79.79,0,0,0,.44-.16h-.09a.75.75,0,0,1-1-.37.7.7,0,0,1-.07-.38ZM4.49,41.31c-.63.41-.57.95,0,1.31a1.49,1.49,0,0,0,2-.47,1.14,1.14,0,0,0,.1-.19,1.51,1.51,0,0,0-2-.74l-.15.08ZM6.42,42a1.37,1.37,0,0,1-1.71.63,1,1,0,0,1-.5-.42.38.38,0,0,1,0-.41,1.07,1.07,0,0,1,.48-.41,1.35,1.35,0,0,1,1.73.6ZM8.31,41h.17a.84.84,0,0,0-1.1.48,1,1,0,0,0-.06.25,2.81,2.81,0,0,0,0,.41.9.9,0,0,0,.45.72.63.63,0,0,0,.76,0h-.1a.73.73,0,0,1-.95-.43.59.59,0,0,1-.05-.19,1.69,1.69,0,0,1,0-.55A.76.76,0,0,1,8.24,41h.07ZM4.74,49.4v.18a.75.75,0,0,0-.47-1,.8.8,0,0,0-.34,0H3.7v.1H4a.7.7,0,0,1,.76.64v.07Zm8-7.24a3.57,3.57,0,0,1,1.54,3.08,2.69,2.69,0,0,1-1.45,2.42,3,3,0,0,1-1.42.48,2.9,2.9,0,0,1-.83-.09v.27a3.14,3.14,0,0,0,2.3-.39,3.23,3.23,0,0,0,1.54-1.86A3.34,3.34,0,0,0,16,47.94a3.17,3.17,0,0,0,1.92.45v-.27a2.42,2.42,0,0,1-1-.06,3.51,3.51,0,0,1-1.55-.92,2.83,2.83,0,0,1-.74-2.45,3.57,3.57,0,0,1,1.47-2.5l.26-.19-.26-.18a3.6,3.6,0,0,1-1.55-3.08A2.81,2.81,0,0,1,15.18,37h-.32a3,3,0,0,0-.48.94,3,3,0,0,0-.49-.94h-.33a3,3,0,0,1,.63,2.35,3.6,3.6,0,0,1-1.54,2.52L12.4,42a.4.4,0,0,1,.3.18ZM13.85,41a5.32,5.32,0,0,0,.6-1.19A4.29,4.29,0,0,0,16,41.92c-.22.24-.44.44-.62.66a6.28,6.28,0,0,0-.52.75c-.14.26-.24.54-.38.85-.09-.23-.16-.44-.25-.63a6.65,6.65,0,0,0-.33-.58,4.42,4.42,0,0,0-.44-.53c-.15-.16-.32-.31-.47-.45.27-.36.58-.68.86-1Zm11-1.81a3.34,3.34,0,0,1-1.25-1.08,3.88,3.88,0,0,1-.54-1.1h-.25a3.91,3.91,0,0,0,1,1.68l.08.13a4.25,4.25,0,0,0-2.68.18,1.43,1.43,0,0,1-.08-.22A4,4,0,0,0,20.35,37a.67.67,0,0,0-.23.1,3.75,3.75,0,0,1,.78,2v.17A9.21,9.21,0,0,1,22,38.93a3.44,3.44,0,0,1,3.3,1A2.44,2.44,0,0,1,26,41.44a3.08,3.08,0,0,1-.3,1.89,3.18,3.18,0,0,1-2.26,1.57,3.62,3.62,0,0,1-2.27-.28l-.25-.11c-.05.29-.07.56-.14.81a3.51,3.51,0,0,1-2,2.49v.49a3.2,3.2,0,0,1,1.7-.8,3.72,3.72,0,0,1,2.23.31l.23.1a1.26,1.26,0,0,1,.07-.52,3.51,3.51,0,0,1,2.58-3h.14l.06-.29-.29.06a3,3,0,0,0,.4-.53c.16-.73.31-1.39.44-2a3,3,0,0,0-.9-2.06,3.12,3.12,0,0,0,1.36,0,1.28,1.28,0,0,1,.07-.28,2.82,2.82,0,0,1-2-.15Zm-1.76,7.11a9.53,9.53,0,0,0-.44,1.27c-.42-.08-.86-.19-1.3-.25a3.88,3.88,0,0,0-1.36.09A4.27,4.27,0,0,0,21.12,45c.49.1.93.2,1.37.27a3.86,3.86,0,0,0,1.31-.1A10.07,10.07,0,0,0,23.09,46.27ZM9.68,58.62l.18.1.14.07a.35.35,0,0,0,.37-.24.3.3,0,0,0-.17-.36L10,58.05a.29.29,0,0,0-.33,0,.26.26,0,0,0-.16.29.31.31,0,0,0,.18.28Zm-.4-15c0-.2-.1-.4-.15-.56a.48.48,0,0,0,.12.56Zm.13.09-.1-.06.11.13Zm-4.64,8a.7.7,0,0,1-.22.55v.08a.64.64,0,0,0,.21-.72.17.17,0,0,0,0,.12Zm4.54-8.09ZM14.92,65l-.09-.15c0-.07-.11.1-.11.13a.1.1,0,0,0,.2,0Zm-.77,0a.14.14,0,0,0-.09-.11l-.14.1c-.06.05.09.1.13.1s0,0,0-.06Zm3.43-1.26a1.52,1.52,0,0,0,.52-2.07.19.19,0,0,0-.21-.11h-.15v.21h.19a1.34,1.34,0,0,1-.27,1.76h0Zm-2.16,1.68c-.05,0-.07-.09-.1-.1h-.08s0,.08.06.1,0,0,.09,0ZM13,66.05h.42a6.84,6.84,0,0,0,1-.69,8.47,8.47,0,0,0,1,.69h.42a7,7,0,0,1-1.42-1,6.16,6.16,0,0,1-1.45,1Zm5-7.47v.06h0a.15.15,0,0,0-.07,0Zm-1.92,7.21-.1.08s.06.06.1.07,0,0,.08-.07Zm-2.42-.35c-.06,0-.08-.08-.12-.09s-.06,0-.07.06,0,.08,0,.08l.12,0ZM10.83,63a1.35,1.35,0,0,1-.05-.77v-.51a1.6,1.6,0,0,0-.18.67,1.62,1.62,0,0,0,.3,1ZM9.44,60.19a.33.33,0,0,0,.36.26l.15-.08.19-.1a.3.3,0,0,0,.21-.3.25.25,0,0,0-.18-.28c-.12,0-.26-.08-.37.06a.38.38,0,0,1-.17.08A.34.34,0,0,0,9.44,60.19Zm1-.72Zm2.4,6.37a.21.21,0,0,0-.11,0v.09h.14c0-.08,0-.13-.07-.13Zm-.61.2-.12.07h.21s-.1-.11-.13-.11Zm.15-2.41a1.31,1.31,0,0,0,.12-.48,1.48,1.48,0,0,0-.92-1.39V62a1.31,1.31,0,0,1,.77,1.31c0,.47-.26.65-.63.56V64h0a.55.55,0,0,0,.62-.37Zm6.08-4.14h0Zm-12.53-1,.05.23a1.79,1.79,0,0,1,.48.51,1.93,1.93,0,0,1-.29.35v.21a1.82,1.82,0,0,0,.47-.56,1.69,1.69,0,0,0-.75-.77Zm11.6-7.88a3.85,3.85,0,0,0,.17,1.12c.06-.9.13-1.8.19-2.69a3.3,3.3,0,0,0-.4,1.54Zm1.7,6.65a1.25,1.25,0,0,0-1.18.39v.16a.75.75,0,0,1,.15-.16,2,2,0,0,1,.51-.28.72.72,0,0,1,.94.38.59.59,0,0,1,.06.32v.16a.76.76,0,0,0-.4-1l-.12,0ZM4.44,49.58A.32.32,0,0,0,4,49.44H3.93l.14.65h0l.18-.1a.35.35,0,0,0,.15-.45Zm20,.17a.44.44,0,0,0,0,.15l.1-.45h0a.26.26,0,0,0-.2.27Zm-.33-.22a1.77,1.77,0,0,1,.08-.4.66.66,0,0,1,.57-.43v-.09a.74.74,0,0,0-.68.79.31.31,0,0,0,0,.1Zm-4.9,10.29-.16-.1-.14-.07c-.23,0-.35.08-.39.23a.34.34,0,0,0,.2.38l.21.12a.3.3,0,0,0,.34,0,.29.29,0,0,0,.15-.3c-.07-.14-.11-.26-.26-.29Zm.52.44a.54.54,0,0,1,0,.18.68.68,0,0,1-.56.68,1,1,0,0,1-.78-.19.78.78,0,0,1-.44-1,.77.77,0,0,1,.22-.31h0a.62.62,0,0,0-.3.32v.55a.87.87,0,0,0,.3.47,2.31,2.31,0,0,0,.48.28.77.77,0,0,0,1-.39.74.74,0,0,0,0-.65Zm-5.64,5.82h.55l-.28-.21ZM16.5,55.19c0-.53.32-.69.81-.49l.14.07v-.14a.51.51,0,0,0-.17-.07.63.63,0,0,0-.84.29.83.83,0,0,0-.06.21,1.47,1.47,0,0,0,.93,1.68v-.21A1.28,1.28,0,0,1,16.5,55.19Zm-.16,7.93a.65.65,0,0,0,.06.33.62.62,0,0,0,.43.5v-.1c-.14,0-.23-.14-.3-.33a1.3,1.3,0,0,1,.41-1.35v-.24a1.53,1.53,0,0,0-.6,1.15Zm2.55-5-.24.13a.31.31,0,0,0-.18.36.34.34,0,0,0,.35.25h.11a.92.92,0,0,1,.3-.18.33.33,0,0,0,.11-.43A.3.3,0,0,0,19,58l-.1,0Zm-.53.89-.24-.12v0l.25.1Z" transform="translate(0.04)"/><rect class="cls-6" x="13.85" width="0.73" height="15.95"/></svg>